<svg id="Layer_1" data-name="Layer 1" xmlns="http://www.w3.org/2000/svg" xmlns:xlink="http://www.w3.org/1999/xlink" viewBox="0 0 1000 1000"><defs><style>.cls-1{fill:url(#linear-gradient);}.cls-2{fill:url(#New_Gradient_Swatch_1);}.cls-3{fill:url(#New_Gradient_Swatch_1-2);}</style><linearGradient id="linear-gradient" x1="186.48" y1="545.32" x2="721.95" y2="545.32" gradientUnits="userSpaceOnUse"><stop offset="0" stop-color="#700b75"/><stop offset="0.2" stop-color="#7d1b88"/><stop offset="0.6" stop-color="#9f44b8"/><stop offset="1" stop-color="#c472ee"/></linearGradient><linearGradient id="New_Gradient_Swatch_1" x1="851.42" y1="291.28" x2="480.2" y2="683.58" gradientUnits="userSpaceOnUse"><stop offset="0" stop-color="#c026d3"/><stop offset="0.12" stop-color="#b826cc"/><stop offset="0.3" stop-color="#a326b8"/><stop offset="0.52" stop-color="#802797"/><stop offset="0.77" stop-color="#51276a"/><stop offset="1" stop-color="#1f283b"/></linearGradient><linearGradient id="New_Gradient_Swatch_1-2" x1="154.68" y1="696.43" x2="350.84" y2="493.95" xlink:href="#New_Gradient_Swatch_1"/></defs><path class="cls-1" d="M722,557.49l-118.1,118.1L585,694.45a90.77,90.77,0,0,1-115.3-5.88l-5.81-5.81-61.13-61.13-24.37-24.37-61.15-61.15-.14-.14c-.35-.31-.68-.62-1-.94v0c-.61-.57-1.22-1.15-1.8-1.74s-1.2-1.21-1.77-1.83l-.1-.09a90.74,90.74,0,0,0-125.92,1.35L250.15,469l63.74-63.73a4.54,4.54,0,0,1,.38-.38c.51-.52,1-1,1.55-1.52s1.05-1,1.59-1.48l1.22-1.09,1.07-.92c.58-.5,1.16-1,1.75-1.46l.95-.76c.58-.46,1.15-.9,1.74-1.33,1.17-.87,2.35-1.71,3.56-2.53.58-.4,1.17-.76,1.75-1.15.18-.12.37-.24.55-.34a1.7,1.7,0,0,0,.14-.1l.42-.26.29-.17c.41-.25.8-.5,1.21-.74l1.2-.72c1.35-.77,2.73-1.51,4.12-2.22.47-.24.95-.48,1.43-.7,2.06-1,4.19-1.95,6.35-2.8.68-.27,1.38-.54,2.07-.79h0c1.39-.5,2.8-1,4.22-1.42l1.25-.37,1.26-.36a4,4,0,0,1,.46-.13c.4-.12.79-.22,1.2-.32a.59.59,0,0,1,.19-.05c.7-.19,1.42-.36,2.12-.53,1.47-.33,2.94-.63,4.44-.91.74-.13,1.49-.26,2.24-.37s1.57-.22,2.36-.32l2.15-.25s0,0,.06,0l1.2-.11.9-.08.29,0,1-.06,1.18-.08a3.85,3.85,0,0,1,.48,0l.73,0c.45,0,.91,0,1.36,0h.11l2,0c2.2,0,4.39.08,6.56.22l2.15.19.28,0c.26,0,.54,0,.8.08s.72.07,1.07.12h.05l.48,0,.37.05,1.23.16,2.1.34c.71.11,1.41.24,2.11.37l2,.39c.09,0,.19,0,.29.08.62.13,1.24.27,1.86.43s1.36.33,2,.51l2,.56,2,.61c1.32.42,2.65.87,3.94,1.35l.49.18q2.69,1,5.28,2.17c.63.28,1.25.56,1.88.86l1.85.91c.61.31,1.23.63,1.83,1s1.09.58,1.64.89l.4.22,1.23.71c.17.1.33.21.5.3.53.31,1.05.64,1.57,1s1.06.67,1.58,1a4.76,4.76,0,0,1,.47.31c.47.29.92.6,1.37.92s.78.53,1.16.81.71.5,1.05.76.75.54,1.1.81c1.09.83,2.15,1.67,3.21,2.55s2.19,1.86,3.26,2.84l5.81,5.82.27.28L506.61,469,531,493.41l60.89,60.9s0,0,.07.06q1.42,1.29,2.76,2.61l.37.37a90.31,90.31,0,0,0,126.87.14Z"/><path class="cls-2" d="M864.8,378.44a90.47,90.47,0,0,1-17.81,54l0,0-18.8,18.82a.2.2,0,0,0-.07.06L723,556.47c-.32.35-.67.69-1,1a90.31,90.31,0,0,1-126.87-.14l-.37-.37q-1.34-1.32-2.76-2.61s-.05,0-.07-.06L531,493.41l58.61-58.63a.07.07,0,0,1,0,0l10.62-10.61s0,0,0,0L705.85,318.53l0,0,8.25-8.24A90.76,90.76,0,0,1,864.8,378.44Z"/><path class="cls-3" d="M378.39,597.26,318.2,657.43,286,689.65a90.76,90.76,0,0,1-124.7-131.76l.9-.89,23.4-23.41.9-.89a90.74,90.74,0,0,1,125.92-1.35l.1.09c.57.62,1.17,1.23,1.77,1.83s1.19,1.17,1.8,1.74v0c.34.32.67.63,1,.94l.14.14Z"/></svg>