
<svg id="Layer_1" data-name="Layer 1" xmlns="http://www.w3.org/2000/svg" xmlns:xlink="http://www.w3.org/1999/xlink" viewBox="0 0 1000 1000"><defs><style>.cls-1{fill:#18181b;}.cls-2{fill:url(#linear-gradient);}.cls-3{fill:url(#New_Gradient_Swatch_1);}.cls-4{fill:url(#New_Gradient_Swatch_1-2);}</style><linearGradient id="linear-gradient" x1="242.57" y1="526.96" x2="709.06" y2="526.96" gradientUnits="userSpaceOnUse"><stop offset="0" stop-color="#700b75"/><stop offset="0.2" stop-color="#7d1b88"/><stop offset="0.6" stop-color="#9f44b8"/><stop offset="1" stop-color="#c472ee"/></linearGradient><linearGradient id="New_Gradient_Swatch_1" x1="821.84" y1="305.65" x2="498.46" y2="647.41" gradientUnits="userSpaceOnUse"><stop offset="0" stop-color="#c026d3"/><stop offset="0.12" stop-color="#b826cc"/><stop offset="0.3" stop-color="#a326b8"/><stop offset="0.52" stop-color="#802797"/><stop offset="0.77" stop-color="#51276a"/><stop offset="1" stop-color="#1f283b"/></linearGradient><linearGradient id="New_Gradient_Swatch_1-2" x1="214.88" y1="658.6" x2="385.76" y2="482.21" xlink:href="#New_Gradient_Swatch_1"/></defs><rect class="cls-1" x="97" y="97" width="806" height="806" rx="226.03"/><path class="cls-2" d="M709.06,537.56,606.17,640.44l-16.42,16.44a79.07,79.07,0,0,1-100.44-5.12l-5.07-5.07L431,593.43,409.76,572.2l-53.27-53.26-.12-.13c-.31-.27-.6-.54-.89-.82h0c-.53-.5-1.06-1-1.57-1.52s-1-1.05-1.54-1.59a.6.6,0,0,1-.08-.08A79.05,79.05,0,0,0,242.57,516L298,460.49,353.57,405a3.43,3.43,0,0,1,.33-.33l1.35-1.33,1.39-1.29,1.06-.94c.31-.27.62-.55.94-.81.5-.43,1-.85,1.52-1.27l.83-.66c.5-.4,1-.78,1.51-1.16,1-.76,2.05-1.48,3.1-2.2.51-.35,1-.67,1.53-1a4.8,4.8,0,0,1,.48-.3l.12-.09.37-.23.25-.14c.35-.22.69-.44,1-.65l1.05-.62c1.17-.68,2.37-1.32,3.59-1.94l1.24-.61c1.8-.89,3.65-1.7,5.53-2.44.6-.24,1.2-.46,1.8-.68h0c1.21-.44,2.44-.86,3.68-1.24.36-.12.73-.22,1.09-.32l1.09-.32.41-.11c.34-.11.69-.19,1-.28l.17,0c.61-.17,1.24-.32,1.85-.46,1.28-.29,2.56-.55,3.86-.79.65-.12,1.3-.23,2-.33l2.05-.28,1.87-.22h.05l1.05-.09.78-.07.25,0,.88-.05,1-.07a2.88,2.88,0,0,1,.42,0l.63,0,1.19,0h.09l1.75,0c1.91,0,3.82.07,5.71.2l1.88.16.23,0,.7.08.94.1h0l.42,0,.32,0,1.07.15,1.83.29,1.83.32,1.73.35a1.83,1.83,0,0,1,.25.06c.54.11,1.08.24,1.63.37l1.78.45,1.75.49,1.75.53c1.16.37,2.31.76,3.44,1.18l.42.15c1.56.59,3.09,1.21,4.6,1.9.55.24,1.1.49,1.64.75l1.61.79,1.59.83,1.44.78.34.19,1.07.62.44.26c.46.27.92.56,1.36.84l1.39.88.4.27c.41.26.81.53,1.2.8s.68.47,1,.71.62.44.92.67l.95.7c.95.72,1.88,1.45,2.79,2.22s1.92,1.62,2.85,2.48l5.06,5.07a2.55,2.55,0,0,1,.23.24l53,53,21.24,21.24,53,53.06.06.05q1.23,1.13,2.4,2.28l.32.32a78.7,78.7,0,0,0,110.53.12Z"/><path class="cls-3" d="M833.5,381.58A78.78,78.78,0,0,1,818,428.64l0,0-16.38,16.39-.06.05-91.58,91.56c-.28.3-.58.61-.88.89a78.7,78.7,0,0,1-110.53-.12l-.32-.32q-1.17-1.15-2.4-2.28l-.06-.05-53-53.06,51.06-51.07a.08.08,0,0,1,0,0l9.25-9.24s0,0,0,0l92-92,0,0,7.18-7.18A79.07,79.07,0,0,1,833.5,381.58Z"/><path class="cls-4" d="M409.76,572.2l-52.44,52.42-28.06,28.07A79.07,79.07,0,0,1,220.62,537.91l.78-.78,20.39-20.39.78-.78a79.05,79.05,0,0,1,109.71-1.17.6.6,0,0,0,.08.08c.5.54,1,1.07,1.54,1.59s1,1,1.57,1.52h0c.29.28.58.55.89.82l.12.13Z"/></svg>